<svg width="108" height="45" viewBox="0 0 108 45" fill="none" xmlns="http://www.w3.org/2000/svg">
<path d="M57.8316 14V4.40176H63.5972V5.14829H58.6048V8.38769H61.2576C63.3239 8.38769 64.3971 9.56081 64.3971 11.1938C64.3971 12.8202 63.3239 14 61.2576 14H57.8316ZM58.6048 13.2535H61.191C62.8307 13.2535 63.5972 12.387 63.5972 11.1938C63.5972 10.0007 62.8307 9.13422 61.191 9.13422H58.6048V13.2535ZM72.8392 14H72.066V5.74818L66.5003 14H65.7338V4.40176H66.5003V12.6536L72.066 4.40176H72.8392V14ZM81.3823 11.3205C81.3823 13.2268 79.8826 14.2 77.9696 14.2C75.9699 14.2 74.6435 13.3001 74.1969 11.5205L74.9768 11.3871C75.4367 12.8136 76.3165 13.4534 77.9762 13.4534C79.4226 13.4534 80.5691 12.7669 80.5691 11.3338C80.5691 10.0607 79.5426 9.43417 78.3095 9.43417H76.5898V8.68764H78.2895C79.4693 8.68764 80.2758 7.9811 80.2758 6.83465C80.2758 5.6082 79.196 4.95499 77.8829 4.95499C76.4232 4.95499 75.4434 5.62153 75.1168 7.14792L74.3236 7.00795C74.7368 4.98832 76.1699 4.2018 77.8896 4.2018C79.6893 4.2018 81.0823 5.11496 81.0823 6.85464C81.0823 7.90112 80.4558 8.72097 79.6026 9.05424C80.4891 9.2542 81.3823 10.0807 81.3823 11.3205ZM83.5091 14H82.7359V4.40176H83.5091V8.82761H89.0614V4.40176H89.8346V14H89.0614V9.57414H83.5091V14ZM97.6379 14H91.7056V4.40176H97.6379V5.14829H92.4788V8.79429H96.838V9.54082H92.4788V13.2535H97.6379V14ZM102.672 14.2C99.7995 14.2 98.3065 12.1403 98.3065 9.20088C98.3065 6.26142 99.7995 4.2018 102.672 4.2018C104.905 4.2018 106.305 5.4549 106.805 7.38788L106.012 7.58118C105.598 5.9748 104.479 4.95499 102.672 4.95499C100.319 4.95499 99.1263 6.70134 99.1263 9.20088C99.1263 11.7004 100.313 13.4468 102.672 13.4468C104.479 13.4468 105.598 12.427 106.012 10.8206L106.805 11.0139C106.305 12.9469 104.905 14.2 102.672 14.2Z" fill="white"/>
<path d="M58.5981 27.3307H57.8316V17.7324H58.5781L62.1975 25.4644L65.7768 17.7324H66.55V27.3174H65.7768V19.4521L62.5774 26.3709H61.8042L58.5981 19.4521V27.3307ZM72.0816 17.7324L75.5076 27.3307H74.6878L73.8279 24.9178H69.4154L68.5622 27.3307H67.7424L71.1684 17.7324H72.0816ZM69.6754 24.1913H73.568L71.6217 18.7256L69.6754 24.1913ZM77.4619 27.3307H76.6953V17.7324H80.168C82.0877 17.7324 83.2608 18.8722 83.2608 20.6586C83.2608 22.4449 82.081 23.5914 80.168 23.5914H77.4619V27.3307ZM77.4619 18.479V22.8382H80.168C81.5944 22.8382 82.4543 22.0183 82.4543 20.6586C82.4543 19.3055 81.5944 18.479 80.168 18.479H77.4619ZM84.5975 27.3307V17.7324H85.3641V22.3049L89.9299 17.7324H90.943L86.3505 22.3449L91.343 27.3307H90.3165L85.3641 22.4183V27.3307H84.5975ZM98.2107 27.3307H92.2784V17.7324H98.2107V18.479H93.0516V22.125H97.4108V22.8715H93.0516V26.5842H98.2107V27.3307ZM103.075 27.3307H102.302V18.479H99.2895V17.7324H106.028V18.479H103.075V27.3307Z" fill="white"/>
<path d="M57.8316 40.6617V31.0635H58.5981V35.636L63.164 31.0635H64.1771L59.5846 35.676L64.577 40.6617H63.5506L58.5981 35.7493V40.6617H57.8316ZM66.279 40.6617H65.5125V31.0635H68.9852C70.9048 31.0635 72.0779 32.2033 72.0779 33.9896C72.0779 35.776 70.8982 36.9224 68.9852 36.9224H66.279V40.6617ZM66.279 31.81V36.1692H68.9852C70.4116 36.1692 71.2714 35.3494 71.2714 33.9896C71.2714 32.6365 70.4116 31.81 68.9852 31.81H66.279ZM79.3469 40.6617H73.4147V31.0635H79.3469V31.81H74.1879V35.456H78.5471V36.2026H74.1879V39.9152H79.3469V40.6617ZM81.3323 39.9152C81.9388 39.1287 82.0655 36.7958 82.0655 34.2296V31.0635H88.2444V39.9152H89.3242V42.4148H88.551V40.6617H81.299V42.4148H80.5324V39.9152H81.3323ZM82.1921 39.9152H87.4712V31.81H82.812V34.9761C82.812 37.2757 82.5921 39.1554 82.1921 39.9152ZM97.8997 40.6617H97.1265V32.4099L91.5608 40.6617H90.7943V31.0635H91.5608V39.3153L97.1265 31.0635H97.8997V40.6617ZM103.023 40.6617H102.25V31.81H99.2375V31.0635H105.976V31.81H103.023V40.6617Z" fill="white"/>
<line x1="50.7859" y1="2.22192" x2="50.7859" y2="42.2146" stroke="white" stroke-width="1.11091"/>
<path d="M25.7536 1.93213H9.66016V36.9754H28.1481C29.0048 36.9754 29.8595 36.7923 30.6153 36.3889C37.7808 32.5644 38.4614 27.7256 33.3659 20.2783L31.3045 21.7212C35.4507 27.5945 35.688 30.5619 30.654 33.6088C29.3571 34.3938 27.8363 34.7079 26.3203 34.7079H12.5461V4.40577H25.5506C28.1107 4.40577 30.8704 4.77939 32.6139 6.65408C34.0852 8.23619 34.4036 10.132 34.3966 13.2696L36.8702 11.8267C36.6457 7.73404 35.6405 5.48559 32.7377 3.61285C30.6884 2.29074 28.1923 1.93213 25.7536 1.93213Z" fill="url(#paint0_linear_1113_441)"/>
<path d="M2.2675 41.8954H0V7.72791L2.2675 12.7008V41.8954Z" fill="url(#paint1_linear_1113_441)"/>
<path d="M41.6852 42.5041H43.6602V8.37183L21.5767 24.5131L14.036 17.2007V20.5218L21.5767 27.6021L41.6852 12.6964V42.5041Z" fill="url(#paint2_linear_1113_441)"/>
<path d="M0 7.72791L8.05005 14.812V17.71L0 11.2699V7.72791Z" fill="url(#paint3_linear_1113_441)"/>
<defs>
<linearGradient id="paint0_linear_1113_441" x1="36.7712" y1="11.9234" x2="8.39112" y2="22.4123" gradientUnits="userSpaceOnUse">
<stop stop-color="#018464"/>
<stop offset="1" stop-color="#21A828"/>
</linearGradient>
<linearGradient id="paint1_linear_1113_441" x1="2.25925" y1="17.4695" x2="-0.426116" y2="17.5544" gradientUnits="userSpaceOnUse">
<stop stop-color="#018464"/>
<stop offset="1" stop-color="#21A828"/>
</linearGradient>
<linearGradient id="paint2_linear_1113_441" x1="14.1438" y1="18.1034" x2="44.1425" y2="30.4963" gradientUnits="userSpaceOnUse">
<stop stop-color="#018464"/>
<stop offset="1" stop-color="#21A828"/>
</linearGradient>
<linearGradient id="paint3_linear_1113_441" x1="8.02076" y1="10.5739" x2="-0.296761" y2="13.7667" gradientUnits="userSpaceOnUse">
<stop stop-color="#018464"/>
<stop offset="1" stop-color="#21A828"/>
</linearGradient>
</defs>
</svg>
